<svg xmlns="http://www.w3.org/2000/svg" viewBox="0 0 480 320" fill="none"><defs><linearGradient id="g1" x1="0" y1="0" x2="1" y2="1"><stop offset="0" stop-color="#96b4d6"></stop><stop offset=".45" stop-color="#5b7ea8"></stop><stop offset="1" stop-color="#233751"></stop></linearGradient><radialGradient id="s1" cx=".32" cy=".28"><stop offset="0" stop-color="#c8d8ea"></stop><stop offset=".42" stop-color="#96b4d6"></stop><stop offset="1" stop-color="#3c5a80"></stop></radialGradient></defs><g stroke="#c8d8ea" stroke-width="1.2" opacity=".8"><path d="M86 214 190 118 296 168 394 96"></path><path d="M86 214 296 168"></path><path d="M190 118 394 96"></path></g><g opacity=".35" stroke="#96b4d6" stroke-width="1"><path d="M40 260h400M40 200h400M40 140h400M40 80h400"></path></g><path d="M296 140c0-6 5-11 11-11h18c6 0 11 5 11 11v17h17c6 0 11 5 11 11v18c0 6-5 11-11 11h-17v17c0 6-5 11-11 11h-18c-6 0-11-5-11-11v-17h-17c-6 0-11-5-11-11v-18c0-6 5-11 11-11h17z" fill="url(#g1)"></path><circle cx="190" cy="118" r="26" fill="url(#s1)"></circle><circle cx="86" cy="214" r="13" fill="#004e84"></circle><circle cx="394" cy="96" r="9" fill="#00afb9"></circle><circle cx="430" cy="232" r="6" fill="#9d7aae"></circle><circle cx="52" cy="120" r="5" fill="#66a5cf"></circle></svg>