<svg xmlns="http://www.w3.org/2000/svg" viewBox="0 0 480 320" fill="none"><defs><linearGradient id="b1" x1="0" y1="1" x2="0" y2="0"><stop offset="0" stop-color="#233751"></stop><stop offset="1" stop-color="#66a5cf"></stop></linearGradient><linearGradient id="b2" x1="0" y1="1" x2="0" y2="0"><stop offset="0" stop-color="#004e84"></stop><stop offset="1" stop-color="#00afb9"></stop></linearGradient></defs><g opacity=".3" stroke="#96b4d6" stroke-width="1"><path d="M32 272h416M32 212h416M32 152h416M32 92h416"></path></g><rect x="56" y="196" width="34" height="76" rx="10" fill="url(#b1)"></rect><rect x="104" y="150" width="34" height="122" rx="10" fill="url(#b1)"></rect><rect x="152" y="176" width="34" height="96" rx="10" fill="url(#b2)"></rect><rect x="200" y="104" width="34" height="168" rx="10" fill="url(#b1)"></rect><rect x="248" y="132" width="34" height="140" rx="10" fill="url(#b2)"></rect><rect x="296" y="64" width="34" height="208" rx="10" fill="url(#b1)"></rect><rect x="344" y="120" width="34" height="152" rx="10" fill="#96b4d6"></rect><rect x="392" y="88" width="34" height="184" rx="10" fill="url(#b2)"></rect><circle cx="313" cy="40" r="14" fill="#9d7aae"></circle></svg>